<svg width="26" height="26" viewBox="0 0 26 26" fill="none" xmlns="http://www.w3.org/2000/svg">
<g clip-path="url(#clip0_1_347)">
<path d="M22.7093 16.6794L21.158 15.9078C20.5399 15.5927 20.2178 14.9746 20.2178 14.2718V11.1817C20.2178 10.5273 20.0604 9.87299 19.7694 9.27922L16.3529 3.19722C15.9851 2.39785 14.9901 2.11636 14.258 2.60456C13.6885 2.98404 13.4674 3.71335 13.7299 4.34514L17.0793 10.9272C17.0912 10.9272 17.0793 10.9393 17.0912 10.9393C17.1518 11.1331 17.1883 11.327 17.1883 11.5331V15.1686C17.1883 15.5078 16.856 15.7745 16.5166 15.7745C16.1773 15.7745 15.9765 15.5078 15.9765 15.1686V12.7449C15.9765 12.0756 15.434 11.5331 14.7646 11.5331C14.0953 11.5331 13.5528 12.0756 13.5528 12.7449V17.0174C13.5528 18.3499 14.2162 19.5756 15.387 20.2118L20.4915 22.9848C20.5762 23.0211 20.6611 23.0454 20.758 23.0454C20.7971 23.0454 20.8362 23.0415 20.8746 23.0339C21.0874 22.9916 21.261 22.8368 21.3277 22.6304L23.0159 17.4082C23.1082 17.123 22.9777 16.8129 22.7093 16.6794Z" fill="#202142"/>
<path d="M10.6446 11.5339C9.97529 11.5339 9.43281 12.0764 9.43281 12.7457V15.1694C9.43281 15.5086 9.23194 15.7753 8.89269 15.7753C8.55329 15.7753 8.22098 15.5086 8.22098 15.1694V11.5339C8.22098 11.3278 8.25743 11.1341 8.31802 10.9401C8.33001 10.9401 8.31802 10.928 8.33001 10.928L11.6794 4.34595C11.9418 3.71416 11.7206 2.98485 11.1513 2.60537C10.4191 2.11733 9.42413 2.39882 9.05632 3.19803L5.63986 9.27988C5.34889 9.87364 5.19142 10.5282 5.19142 11.1825V14.2727C5.19142 14.9755 4.86937 15.5935 4.25131 15.9086L2.69992 16.6802C2.43152 16.8137 2.30102 17.1236 2.39333 17.409L4.08137 22.6311C4.14811 22.8375 4.32184 22.9924 4.53454 23.0347C4.57304 23.0423 4.61217 23.0462 4.6513 23.0462C4.74819 23.0462 4.83308 23.0219 4.91781 22.9857L10.0222 20.2125C11.1931 19.5764 11.8565 18.3507 11.8565 17.0182V12.7457C11.8565 12.0764 11.314 11.5339 10.6446 11.5339Z" fill="#202142"/>
</g>
<defs>
<clipPath id="clip0_1_347">
<rect width="20.6818" height="20.6818" fill="white" transform="translate(2.36363 2.36365)"/>
</clipPath>
</defs>
</svg>
