<svg width="31" height="29" viewBox="0 0 31 29" fill="none" xmlns="http://www.w3.org/2000/svg">
<g clip-path="url(#clip0_1_436)">
<path d="M1.91382 1.242H29.1732V27.7579H1.91382V1.242Z" fill="#2E001E"/>
<path d="M0.674744 0.00296021V28.997H30.4122V0.00296021H0.674744ZM1.91381 1.24202H29.1732V27.7579H1.91381V1.24202Z" fill="#FF2BC2"/>
<path d="M22.2716 12.1829C22.0858 12.0962 21.8503 12.059 21.553 12.059C19.9917 12.059 18.9509 13.2609 18.9509 15.2558C18.9509 17.5357 20.0165 18.4526 21.4043 18.4526C21.7017 18.4526 22.0238 18.4154 22.2592 18.3163V12.1829H22.2716ZM16.7206 15.3549C16.7206 12.4679 18.5792 10.2128 21.6273 10.2128C21.8875 10.2128 22.0238 10.2128 22.2716 10.2376V7.01603C22.2716 6.94168 22.3336 6.89212 22.3955 6.89212H24.3904C24.4895 6.89212 24.5143 6.92929 24.5143 6.99125V18.3163C24.5143 18.6508 24.5143 19.0721 24.5763 19.5306C24.5763 19.6173 24.5763 19.6297 24.5019 19.6669C23.4611 20.1625 22.3707 20.3855 21.3299 20.3855C18.6412 20.3855 16.7206 18.7252 16.7206 15.3549V15.3549ZM12.4954 13.3476L15.9648 20.0757C16.0267 20.1749 15.9896 20.274 15.8905 20.274H13.7345C13.5982 20.274 13.5362 20.2368 13.4743 20.1129C12.6813 18.4774 11.8759 16.7798 11.0457 15.0204H11.0209C10.2775 16.6807 9.45972 18.4897 8.66672 20.1253C8.60477 20.2244 8.54282 20.2616 8.44369 20.2616H6.38685C6.26294 20.2616 6.25055 20.1625 6.3125 20.0881L9.70753 13.5583L6.42402 7.06559C6.34968 6.96646 6.42402 6.87973 6.51075 6.87973H8.64194C8.76585 6.87973 8.8278 6.90451 8.86497 7.01603C9.64558 8.66398 10.4386 10.2872 11.182 11.9475H11.2068C11.9255 10.3119 12.7185 8.66398 13.4743 7.04081C13.5362 6.94168 13.5734 6.87973 13.6973 6.87973H15.6922C15.7913 6.87973 15.8285 6.95407 15.7665 7.06559L12.4954 13.3476V13.3476Z" fill="#FF2BC2"/>
</g>
<defs>
<clipPath id="clip0_1_436">
<rect width="29.7375" height="29" fill="white" transform="translate(0.674744 -3.05176e-05)"/>
</clipPath>
</defs>
</svg>
