<svg width="30" height="29" viewBox="0 0 30 29" fill="none" xmlns="http://www.w3.org/2000/svg">
<path d="M15.4178 14.5C15.4178 11.8306 17.5575 9.66663 20.1971 9.66663C22.8366 9.66663 24.9764 11.8306 24.9764 14.5C24.9764 17.1694 22.8366 19.3333 20.1971 19.3333C17.5575 19.3333 15.4178 17.1694 15.4178 14.5Z" fill="#1ABCFE"/>
<path d="M5.85913 24.1666C5.85913 21.4973 7.99891 19.3333 10.6385 19.3333H15.4178V24.1666C15.4178 26.836 13.278 29 10.6385 29C7.99891 29 5.85913 26.836 5.85913 24.1666Z" fill="#0ACF83"/>
<path d="M15.4178 0V9.66664H20.1971C22.8367 9.66664 24.9764 7.5027 24.9764 4.83333C24.9764 2.16396 22.8367 0 20.1971 0H15.4178Z" fill="#FF7262"/>
<path d="M5.85913 4.83333C5.85913 7.50271 7.99891 9.66664 10.6385 9.66664H15.4178V0H10.6385C7.99891 0 5.85913 2.16396 5.85913 4.83333Z" fill="#F24E1E"/>
<path d="M5.85913 14.5C5.85913 17.1694 7.99891 19.3333 10.6385 19.3333H15.4178V9.66663H10.6385C7.99891 9.66663 5.85913 11.8306 5.85913 14.5Z" fill="#A259FF"/>
</svg>
