<svg width="94" height="15" viewBox="0 0 94 15" fill="none" xmlns="http://www.w3.org/2000/svg">
<path d="M4.69983 11.8253C6.58132 11.8253 8.04139 11.3223 9.08002 10.3163C10.1186 9.31032 10.638 7.89376 10.638 6.06664C10.638 4.25039 10.1186 2.83927 9.08002 1.83327C8.04139 0.827265 6.58132 0.324265 4.69983 0.324265H1.46974C1.15434 0.324265 0.906923 0.41127 0.727474 0.585281C0.548025 0.759293 0.458298 1.004 0.458298 1.31939V10.8302C0.458298 11.1456 0.548025 11.3903 0.727474 11.5643C0.906923 11.7383 1.15434 11.8253 1.46974 11.8253H4.69983ZM4.56932 10.1124H2.56275V2.03719H4.56932C7.21211 2.03719 8.53351 3.38034 8.53351 6.06664C8.53351 8.76381 7.21211 10.1124 4.56932 10.1124ZM16.3151 11.9558C16.7392 11.9558 17.1851 11.8933 17.6528 11.7682C18.1204 11.6432 18.5392 11.4773 18.9089 11.2707C19.3113 11.0423 19.5125 10.7595 19.5125 10.4224C19.5125 10.1831 19.4554 9.99277 19.3412 9.85138C19.227 9.71 19.0775 9.63931 18.8926 9.63931C18.7404 9.63931 18.5011 9.72631 18.1748 9.90032C17.8377 10.0526 17.5359 10.1722 17.2694 10.2592C17.003 10.3462 16.6957 10.3897 16.3477 10.3897C15.6625 10.3897 15.1405 10.213 14.7816 9.85954C14.4227 9.50608 14.2106 8.95414 14.1454 8.20371H18.9579C19.3712 8.20371 19.5778 7.96988 19.5778 7.50223C19.5778 6.71918 19.431 6.03945 19.1373 5.46304C18.8437 4.88662 18.4304 4.44072 17.8975 4.12532C17.3646 3.80993 16.7392 3.65223 16.0214 3.65223C15.271 3.65223 14.5994 3.82624 14.0067 4.17426C13.414 4.52229 12.9545 5.01169 12.6282 5.64248C12.3019 6.27328 12.1388 6.99651 12.1388 7.81219C12.1388 9.09552 12.514 10.107 13.2644 10.8465C14.0149 11.5861 15.0317 11.9558 16.3151 11.9558ZM17.8322 7.1107H14.1454C14.2106 6.45816 14.4091 5.95788 14.7408 5.60986C15.0725 5.26184 15.5157 5.08782 16.0704 5.08782C16.6142 5.08782 17.0383 5.25912 17.3428 5.6017C17.6474 5.94428 17.8105 6.44729 17.8322 7.1107ZM24.1293 11.9558C25.1516 11.9558 25.97 11.7329 26.5845 11.287C27.1989 10.8411 27.5062 10.2483 27.5062 9.5088C27.5062 9.05202 27.4165 8.67681 27.237 8.38316C27.0576 8.08952 26.7612 7.84481 26.3479 7.64905C25.9346 7.45329 25.3637 7.27928 24.635 7.12702C23.9498 6.98563 23.4876 6.84425 23.2483 6.70287C23.0091 6.56148 22.8894 6.35484 22.8894 6.08295C22.8894 5.80018 23.0064 5.57723 23.2402 5.41409C23.474 5.25096 23.7921 5.16939 24.1945 5.16939C24.5317 5.16939 24.8144 5.21017 25.0428 5.29174C25.2712 5.37331 25.5431 5.49566 25.8585 5.6588C26.0325 5.75668 26.1766 5.83009 26.2908 5.87903C26.405 5.92797 26.5219 5.95244 26.6416 5.95244C26.8156 5.95244 26.9624 5.87903 27.082 5.73221C27.2017 5.58539 27.2615 5.40322 27.2615 5.18571C27.2615 4.82681 27.0875 4.5386 26.7394 4.32109C26.4023 4.10357 26.0216 3.93772 25.5975 3.82352C25.1733 3.70933 24.7329 3.65223 24.2761 3.65223C23.6453 3.65223 23.0825 3.75827 22.5876 3.97034C22.0928 4.18242 21.704 4.4815 21.4212 4.86759C21.1385 5.25368 20.9971 5.68599 20.9971 6.16452C20.9971 6.79531 21.2064 7.29015 21.6251 7.64905C22.0439 8.00795 22.7372 8.28528 23.7051 8.48104C24.2489 8.60068 24.654 8.70671 24.9205 8.79916C25.1869 8.8916 25.3718 8.9922 25.4751 9.10096C25.5785 9.20972 25.6301 9.35654 25.6301 9.54143C25.6301 9.81332 25.5023 10.0254 25.2468 10.1777C24.9912 10.3299 24.635 10.406 24.1782 10.406C23.7323 10.406 23.3653 10.3625 23.077 10.2755C22.7888 10.1885 22.4707 10.0635 22.1227 9.90032C21.7964 9.72631 21.5409 9.63931 21.356 9.63931C21.182 9.63931 21.0351 9.70728 20.9155 9.84323C20.7959 9.97917 20.736 10.1559 20.736 10.3734C20.736 10.7541 20.9101 11.0477 21.2581 11.2543C21.9868 11.722 22.9438 11.9558 24.1293 11.9558ZM30.1653 2.23295C30.5351 2.23295 30.8287 2.13235 31.0462 1.93115C31.2637 1.72995 31.3725 1.46621 31.3725 1.13994C31.3725 0.813671 31.261 0.552654 31.0381 0.356892C30.8151 0.161129 30.5242 0.0632477 30.1653 0.0632477C29.7955 0.0632477 29.5019 0.161129 29.2844 0.356892C29.0668 0.552654 28.9581 0.813671 28.9581 1.13994C28.9581 1.46621 29.0668 1.72995 29.2844 1.93115C29.5019 2.13235 29.7955 2.23295 30.1653 2.23295ZM30.1653 11.9232C30.4589 11.9232 30.7036 11.8389 30.8994 11.6703C31.0952 11.5018 31.193 11.2598 31.193 10.9444V4.64736C31.193 4.33196 31.0952 4.0927 30.8994 3.92956C30.7036 3.76643 30.4589 3.68486 30.1653 3.68486C29.8716 3.68486 29.6297 3.76643 29.4393 3.92956C29.249 4.0927 29.1539 4.33196 29.1539 4.64736V10.9444C29.1539 11.2598 29.249 11.5018 29.4393 11.6703C29.6297 11.8389 29.8716 11.9232 30.1653 11.9232ZM36.9354 14.8923C38.2949 14.8923 39.3226 14.5714 40.0187 13.9298C40.7147 13.2881 41.0627 12.3419 41.0627 11.0912V4.64736C41.0627 4.35371 40.9703 4.11989 40.7854 3.94588C40.6005 3.77186 40.3558 3.68486 40.0513 3.68486C39.7468 3.68486 39.5021 3.77186 39.3172 3.94588C39.1323 4.11989 39.0399 4.34828 39.0399 4.63104V5.0552C38.8006 4.60929 38.4526 4.26399 37.9958 4.01929C37.539 3.77458 37.017 3.65223 36.4297 3.65223C35.7337 3.65223 35.1137 3.81808 34.57 4.14979C34.0262 4.4815 33.6047 4.94916 33.3057 5.55276C33.0066 6.15636 32.857 6.84969 32.857 7.63274C32.857 8.41579 33.0093 9.1064 33.3138 9.70456C33.6183 10.3027 34.0398 10.7677 34.5781 11.0994C35.1165 11.4311 35.7337 11.5969 36.4297 11.5969C37.017 11.5969 37.539 11.4746 37.9958 11.2299C38.4526 10.9852 38.8006 10.6399 39.0399 10.194V11.238C39.0399 12.6301 38.3275 13.3262 36.9028 13.3262C36.5004 13.3262 36.1442 13.2827 35.8343 13.1957C35.5243 13.1087 35.1735 12.9836 34.782 12.8204C34.6298 12.7552 34.4829 12.6981 34.3416 12.6492C34.2002 12.6002 34.0805 12.5757 33.9827 12.5757C33.7978 12.5757 33.6482 12.6464 33.534 12.7878C33.4198 12.9292 33.3628 13.1195 33.3628 13.3588C33.3628 13.6959 33.5639 13.9842 33.9664 14.2234C34.7603 14.6693 35.75 14.8923 36.9354 14.8923ZM36.968 10.0145C36.3264 10.0145 35.8207 9.80244 35.4509 9.37829C35.0811 8.95414 34.8962 8.37229 34.8962 7.63274C34.8962 6.88231 35.0811 6.29503 35.4509 5.87087C35.8207 5.44672 36.3264 5.23465 36.968 5.23465C37.6206 5.23465 38.129 5.44672 38.4934 5.87087C38.8577 6.29503 39.0399 6.88231 39.0399 7.63274C39.0399 8.37229 38.8577 8.95414 38.4934 9.37829C38.129 9.80244 37.6206 10.0145 36.968 10.0145ZM49.6274 11.9232C49.9428 11.9232 50.1902 11.8362 50.3696 11.6622C50.5491 11.4882 50.6388 11.2489 50.6388 10.9444V6.93126C50.6388 5.83281 50.405 5.01169 49.9373 4.46791C49.4697 3.92412 48.7573 3.65223 47.8003 3.65223C47.2238 3.65223 46.7072 3.77186 46.2505 4.01113C45.7937 4.25039 45.4293 4.59298 45.1575 5.03888V4.59842C45.1575 4.32652 45.0677 4.10629 44.8883 3.93772C44.7088 3.76914 44.4777 3.68486 44.195 3.68486C43.8796 3.68486 43.6294 3.77186 43.4445 3.94588C43.2596 4.11989 43.1672 4.34828 43.1672 4.63104V10.9444C43.1672 11.2489 43.2569 11.4882 43.4364 11.6622C43.6158 11.8362 43.8632 11.9232 44.1786 11.9232C44.494 11.9232 44.7442 11.8362 44.9291 11.6622C45.1139 11.4882 45.2064 11.2489 45.2064 10.9444V7.30647C45.2064 6.68655 45.3831 6.19171 45.7366 5.82193C46.09 5.45216 46.5604 5.26727 47.1477 5.26727C47.648 5.26727 48.015 5.40866 48.2489 5.69143C48.4827 5.97419 48.5996 6.42553 48.5996 7.04545V10.9444C48.5996 11.2489 48.6921 11.4882 48.8769 11.6622C49.0618 11.8362 49.312 11.9232 49.6274 11.9232ZM61.5526 11.8253C63.4341 11.8253 64.8941 11.3223 65.9328 10.3163C66.9714 9.31032 67.4907 7.89376 67.4907 6.06664C67.4907 4.25039 66.9714 2.83927 65.9328 1.83327C64.8941 0.827265 63.4341 0.324265 61.5526 0.324265H58.3225C58.0071 0.324265 57.7597 0.41127 57.5802 0.585281C57.4008 0.759293 57.3111 1.004 57.3111 1.31939V10.8302C57.3111 11.1456 57.4008 11.3903 57.5802 11.5643C57.7597 11.7383 58.0071 11.8253 58.3225 11.8253H61.5526ZM61.4221 10.1124H59.4155V2.03719H61.4221C64.0649 2.03719 65.3863 3.38034 65.3863 6.06664C65.3863 8.76381 64.0649 10.1124 61.4221 10.1124ZM71.9769 11.9558C72.499 11.9558 72.9585 11.8362 73.3554 11.5969C73.7524 11.3577 74.0433 11.026 74.2282 10.6018V10.9607C74.2282 11.2435 74.3179 11.4719 74.4974 11.6459C74.6768 11.8199 74.908 11.9069 75.1907 11.9069C75.4952 11.9069 75.7345 11.8226 75.9085 11.654C76.0825 11.4855 76.1695 11.2543 76.1695 10.9607V6.9802C76.1695 5.86 75.9003 5.02529 75.362 4.47606C74.8237 3.92684 73.9998 3.65223 72.8905 3.65223C72.3793 3.65223 71.86 3.71205 71.3326 3.83168C70.8051 3.95131 70.351 4.11445 69.9704 4.32109C69.7529 4.44072 69.5979 4.56851 69.5054 4.70445C69.413 4.8404 69.3668 5.00082 69.3668 5.18571C69.3668 5.41409 69.4293 5.59898 69.5544 5.74037C69.6795 5.88175 69.8399 5.95244 70.0356 5.95244C70.1661 5.95244 70.3728 5.88175 70.6555 5.74037C71.1015 5.56635 71.4875 5.43313 71.8138 5.34068C72.1401 5.24824 72.4609 5.20202 72.7763 5.20202C73.2875 5.20202 73.6572 5.32437 73.8856 5.56907C74.114 5.81378 74.2282 6.20258 74.2282 6.73549V7.1107H73.8204C72.6349 7.1107 71.7051 7.18683 71.0308 7.33909C70.3565 7.49135 69.8698 7.73606 69.5707 8.0732C69.2716 8.41035 69.1221 8.87257 69.1221 9.45986C69.1221 9.92751 69.2471 10.3517 69.4973 10.7323C69.7474 11.113 70.09 11.412 70.525 11.6296C70.9601 11.8471 71.444 11.9558 71.9769 11.9558ZM72.3848 10.4876C72.0259 10.4876 71.7241 10.3761 71.4794 10.1532C71.2347 9.93023 71.1123 9.64474 71.1123 9.29672C71.1123 9.01395 71.1993 8.791 71.3733 8.62787C71.5473 8.46473 71.8356 8.35053 72.238 8.28528C72.6404 8.22003 73.2059 8.1874 73.9346 8.1874H74.2282V8.52999C74.2282 9.1064 74.0569 9.57677 73.7143 9.94111C73.3718 10.3054 72.9286 10.4876 72.3848 10.4876ZM79.2528 2.23295C79.6226 2.23295 79.9162 2.13235 80.1337 1.93115C80.3512 1.72995 80.46 1.46621 80.46 1.13994C80.46 0.813671 80.3485 0.552654 80.1256 0.356892C79.9026 0.161129 79.6117 0.0632477 79.2528 0.0632477C78.883 0.0632477 78.5894 0.161129 78.3719 0.356892C78.1543 0.552654 78.0456 0.813671 78.0456 1.13994C78.0456 1.46621 78.1543 1.72995 78.3719 1.93115C78.5894 2.13235 78.883 2.23295 79.2528 2.23295ZM79.2528 11.9232C79.5464 11.9232 79.7911 11.8389 79.9869 11.6703C80.1827 11.5018 80.2805 11.2598 80.2805 10.9444V4.64736C80.2805 4.33196 80.1827 4.0927 79.9869 3.92956C79.7911 3.76643 79.5464 3.68486 79.2528 3.68486C78.9591 3.68486 78.7172 3.76643 78.5268 3.92956C78.3365 4.0927 78.2413 4.33196 78.2413 4.64736V10.9444C78.2413 11.2598 78.3365 11.5018 78.5268 11.6703C78.7172 11.8389 78.9591 11.9232 79.2528 11.9232ZM83.3964 11.9232C83.6901 11.9232 83.9348 11.8389 84.1305 11.6703C84.3263 11.5018 84.4242 11.2598 84.4242 10.9444V1.2052C84.4242 0.889801 84.3263 0.650536 84.1305 0.4874C83.9348 0.324264 83.6901 0.242697 83.3964 0.242697C83.1028 0.242697 82.8608 0.324264 82.6705 0.4874C82.4801 0.650536 82.385 0.889801 82.385 1.2052V10.9444C82.385 11.2598 82.4801 11.5018 82.6705 11.6703C82.8608 11.8389 83.1028 11.9232 83.3964 11.9232ZM88.4863 14.8433C88.8778 14.8433 89.166 14.6584 89.3509 14.2887L93.8045 4.95732C93.8697 4.82681 93.9024 4.70174 93.9024 4.5821C93.9024 4.33196 93.8018 4.1226 93.6006 3.95403C93.3994 3.78546 93.1737 3.70117 92.9236 3.70117C92.7495 3.70117 92.5891 3.74739 92.4423 3.83984C92.2955 3.93228 92.1786 4.07638 92.0916 4.27215L89.824 9.29672L87.5401 4.25583C87.4531 4.06007 87.3334 3.91597 87.1812 3.82352C87.0289 3.73108 86.8604 3.68486 86.6755 3.68486C86.4036 3.68486 86.1616 3.77186 85.9495 3.94588C85.7374 4.11989 85.6314 4.33196 85.6314 4.5821C85.6314 4.72349 85.6586 4.84856 85.713 4.95732L88.7473 11.2707L87.638 13.6035C87.5727 13.7558 87.5401 13.8917 87.5401 14.0113C87.5401 14.2506 87.6352 14.4491 87.8256 14.6068C88.0159 14.7645 88.2361 14.8433 88.4863 14.8433Z" fill="#242E4C"/>
</svg>
